<svg width="1200" height="720" viewBox="0 0 1200 720" fill="none" xmlns="http://www.w3.org/2000/svg">
<rect width="1200" height="720" rx="36" fill="url(#paint0_linear)"/>
<g opacity="0.16">
<circle cx="153" cy="123" r="90" fill="#7DD3FC"/>
<circle cx="1110" cy="82" r="130" fill="#C4B5FD"/>
<circle cx="1055" cy="650" r="140" fill="#86EFAC"/>
</g>
<rect x="90" y="110" width="1020" height="500" rx="30" fill="#0F172A" fill-opacity="0.74"/>
<rect x="130" y="160" width="340" height="180" rx="20" fill="#1E293B"/>
<path d="M164 285L216 236L270 262L329 198L380 228L438 180" stroke="#22D3EE" stroke-width="14" stroke-linecap="round"/>
<rect x="130" y="365" width="340" height="200" rx="20" fill="#1E293B"/>
<rect x="165" y="402" width="200" height="18" rx="9" fill="#334155"/>
<rect x="165" y="440" width="268" height="18" rx="9" fill="#334155"/>
<rect x="165" y="478" width="220" height="18" rx="9" fill="#334155"/>
<rect x="510" y="160" width="560" height="405" rx="20" fill="#1E293B"/>
<path d="M560 250C616 208 710 186 792 210C873 233 932 285 996 288" stroke="#A78BFA" stroke-width="14" stroke-linecap="round"/>
<path d="M560 320C616 278 710 256 792 280C873 303 932 355 996 358" stroke="#38BDF8" stroke-width="14" stroke-linecap="round"/>
<path d="M560 390C616 348 710 326 792 350C873 373 932 425 996 428" stroke="#34D399" stroke-width="14" stroke-linecap="round"/>
<circle cx="596" cy="250" r="14" fill="#A78BFA"/>
<circle cx="596" cy="320" r="14" fill="#38BDF8"/>
<circle cx="596" cy="390" r="14" fill="#34D399"/>
<rect x="905" y="180" width="135" height="70" rx="14" fill="#0EA5E9" fill-opacity="0.23" stroke="#38BDF8"/>
<path d="M940 225L960 205L985 217L1010 196" stroke="#7DD3FC" stroke-width="8" stroke-linecap="round"/>
<defs>
<linearGradient id="paint0_linear" x1="65" y1="57" x2="1107" y2="680" gradientUnits="userSpaceOnUse">
<stop stop-color="#0F172A"/>
<stop offset="1" stop-color="#1D4ED8"/>
</linearGradient>
</defs>
</svg>
